# xmcd CD database file
#
# Track frame offsets:
#	150
#	14288
#	29082
#	43631
#	56953
#	70109
#	112259
#	142436
#	153324
#	165091
#	179428
#	193479
#	207757
#	220507
#	235166
#
# Disc length: 3313 seconds
#
# Revision: 0
# Processed by: cddbd v1.5.2PL0 Copyright (c) Steve Scherf et al.
# Submitted via: CDex 1.51
#
DISCID=e10cef0f
DTITLE=Sampler - Jazz Bar Classics
DYEAR=1900
DGENRE=Jazz
TTITLE0=Scott Joplin - The Entertainer
TTITLE1=Art Tatum - Sophisticated Lady
TTITLE2=Erroll Garner - Play Piano Play
TTITLE3=Bud Bowell - Over The Rainbow
TTITLE4=Teddy Wilson - Somebody Loves Me
TTITLE5=Cecil Percival Tayler - You'd Be So Nice
TTITLE6=Memphis Slim - Three And One Boogie
TTITLE7=Sammy Price - 133rd Street Boogie
TTITLE8=Earl Hines - On The Sunny Side Of The Steet
TTITLE9=Art Tatum - Stormy Weather
TTITLE10=Scott Joplin - Maple Leaf Rag
TTITLE11=Erroll Garner - Sweet Lorraine
TTITLE12=Duke Ellington and Billy Strayhorn - Tonk
TTITLE13=Art Tatum - Tea For Two
TTITLE14=Erroll Garner - Yesterday
EXTD=
EXTT0=
EXTT1=
EXTT2=
EXTT3=
EXTT4=
EXTT5=
EXTT6=
EXTT7=
EXTT8=
EXTT9=
EXTT10=
EXTT11=
EXTT12=
EXTT13=
EXTT14=
PLAYORDER=
